<svg width="1920" height="1080" viewBox="0 0 1920 1080" fill="none" xmlns="http://www.w3.org/2000/svg">
    <g filter="url(#filter0_f)">
        <path d="M1081.5 451.5C1081.5 673.544 901.044 854 679 854C456.956 854 276.5 673.544 276.5 451.5C276.5 229.456 456.956 49 679 49C901.044 49 1081.5 229.456 1081.5 451.5Z" fill="#0A2F1F" fill-opacity="0.15"/>
    </g>
    <g filter="url(#filter1_f)">
        <path d="M1643.5 628.5C1643.5 850.544 1463.04 1031 1241 1031C1018.96 1031 838.5 850.544 838.5 628.5C838.5 406.456 1018.96 226 1241 226C1463.04 226 1643.5 406.456 1643.5 628.5Z" fill="#2A5F4F" fill-opacity="0.1"/>
    </g>
    <defs>
        <filter id="filter0_f" x="76.5" y="-151" width="1205" height="1205" filterUnits="userSpaceOnUse" color-interpolation-filters="sRGB">
            <feFlood flood-opacity="0" result="BackgroundImageFix"/>
            <feBlend mode="normal" in="SourceGraphic" in2="BackgroundImageFix" result="shape"/>
            <feGaussianBlur stdDeviation="100" result="effect1_foregroundBlur"/>
        </filter>
        <filter id="filter1_f" x="638.5" y="26" width="1205" height="1205" filterUnits="userSpaceOnUse" color-interpolation-filters="sRGB">
            <feFlood flood-opacity="0" result="BackgroundImageFix"/>
            <feBlend mode="normal" in="SourceGraphic" in2="BackgroundImageFix" result="shape"/>
            <feGaussianBlur stdDeviation="100" result="effect1_foregroundBlur"/>
        </filter>
    </defs>
</svg> 